<svg xmlns="http://www.w3.org/2000/svg" viewBox="0 0 512 512">
  <defs>
    <linearGradient id="spaceGrad" x1="0%" y1="0%" x2="100%" y2="100%">
      <stop offset="0%" style="stop-color:#000033;stop-opacity:1" />
      <stop offset="50%" style="stop-color:#001155;stop-opacity:1" />
      <stop offset="100%" style="stop-color:#0078D4;stop-opacity:1" />
    </linearGradient>
    <radialGradient id="sunGrad" cx="50%" cy="50%" r="50%">
      <stop offset="0%" style="stop-color:#FFF8DC;stop-opacity:1" />
      <stop offset="50%" style="stop-color:#FFD700;stop-opacity:1" />
      <stop offset="100%" style="stop-color:#FFA500;stop-opacity:1" />
    </radialGradient>
  </defs>
  
  <!-- Space background -->
  <rect width="512" height="512" fill="url(#spaceGrad)" rx="60"/>
  
  <!-- Stars -->
  <circle cx="80" cy="80" r="2" fill="white" opacity="0.8"/>
  <circle cx="450" cy="100" r="2" fill="white" opacity="0.6"/>
  <circle cx="120" cy="450" r="2" fill="white" opacity="0.9"/>
  <circle cx="400" cy="400" r="2" fill="white" opacity="0.7"/>
  <circle cx="200" cy="90" r="1.5" fill="white" opacity="0.8"/>
  <circle cx="350" cy="480" r="1.5" fill="white" opacity="0.6"/>
  
  <!-- Sun -->
  <circle cx="256" cy="180" r="65" fill="url(#sunGrad)"/>
  <circle cx="256" cy="180" r="70" fill="#FFA500" opacity="0.3"/>
  
  <!-- Saturn-like planet with rings -->
  <ellipse cx="256" cy="320" rx="140" ry="18" fill="#0078D4" opacity="0.4"/>
  <ellipse cx="256" cy="320" rx="120" ry="15" fill="#0078D4" opacity="0.6"/>
  <circle cx="200" cy="300" r="32" fill="#4A9EFF"/>
  <ellipse cx="200" cy="300" rx="32" ry="30" fill="#2E86DE" opacity="0.3"/>
  
  <!-- Earth-like planet -->
  <circle cx="340" cy="340" r="38" fill="#2ECC71"/>
  <circle cx="345" cy="335" r="12" fill="#3498DB"/>
  <circle cx="330" cy="348" r="8" fill="#3498DB"/>
  <circle cx="340" cy="340" r="38" fill="white" opacity="0.1"/>
  
  <!-- Rocket -->
  <g transform="translate(256, 430)">
    <path d="M -15 0 L 0 -40 L 15 0 Z" fill="#FF6B6B"/>
    <rect x="-12" y="0" width="24" height="25" fill="#F0F0F0"/>
    <circle cx="0" cy="12" r="6" fill="#3498DB"/>
    <path d="M -15 25 L -20 35 L -12 25 Z" fill="#FFD700"/>
    <path d="M 15 25 L 20 35 L 12 25 Z" fill="#FFD700"/>
    <path d="M -5 25 L 0 40 L 5 25 Z" fill="#FFA500"/>
  </g>
</svg>
